<svg width="8" height="8" viewBox="0 0 8 8" fill="none" xmlns="http://www.w3.org/2000/svg">
<g clip-path="url(#clip0_55_323)">
<path d="M2.40183 3.64082C2.53208 3.59457 2.71883 3.55932 2.96558 3.58257C2.98193 3.58412 2.99842 3.58242 3.01411 3.57759C3.02981 3.57276 3.0444 3.56489 3.05705 3.55442C3.0697 3.54395 3.08017 3.53109 3.08785 3.51657C3.09553 3.50206 3.10028 3.48617 3.10183 3.46982C3.10337 3.45347 3.10168 3.43698 3.09685 3.42128C3.09201 3.40559 3.08414 3.391 3.07367 3.37835C3.0632 3.3657 3.05034 3.35523 3.03583 3.34755C3.02131 3.33986 3.00543 3.33512 2.98908 3.33357C2.70583 3.30707 2.48258 3.34682 2.31783 3.40532C2.30236 3.41084 2.28814 3.41935 2.27596 3.43036C2.26379 3.44137 2.2539 3.45468 2.24687 3.46951C2.23266 3.49947 2.23094 3.53384 2.24208 3.56507C2.25321 3.5963 2.2763 3.62183 2.30626 3.63603C2.33622 3.65024 2.3706 3.65196 2.40183 3.64082ZM5.54433 3.40532C5.37933 3.34682 5.15633 3.30707 4.87308 3.33357C4.85673 3.33512 4.84084 3.33986 4.82633 3.34755C4.81181 3.35523 4.79895 3.3657 4.78848 3.37835C4.77801 3.391 4.77014 3.40559 4.76531 3.42128C4.76048 3.43698 4.75878 3.45347 4.76033 3.46982C4.76187 3.48617 4.76662 3.50206 4.7743 3.51657C4.78198 3.53109 4.79245 3.54395 4.8051 3.55442C4.81775 3.56489 4.83234 3.57276 4.84804 3.57759C4.86373 3.58242 4.88023 3.58412 4.89658 3.58257C5.14333 3.55932 5.33008 3.59457 5.46033 3.64082C5.49155 3.65196 5.52593 3.65024 5.55589 3.63603C5.58585 3.62183 5.60894 3.5963 5.62008 3.56507C5.63121 3.53384 5.62949 3.49947 5.61529 3.46951C5.60108 3.43955 5.57555 3.41646 5.54433 3.40532ZM2.79983 3.88257C2.43733 3.88257 2.13233 4.13257 2.04733 4.46757C2.02233 4.56257 2.09733 4.65507 2.19733 4.65507H2.43683C2.4171 4.58164 2.41451 4.50465 2.42926 4.43005C2.44401 4.35546 2.47571 4.28525 2.5219 4.22485C2.56809 4.16445 2.62755 4.11547 2.69568 4.0817C2.76381 4.04793 2.83879 4.03027 2.91483 4.03007C2.99089 4.03023 3.06589 4.04786 3.13405 4.08162C3.20221 4.11538 3.2617 4.16435 3.30792 4.22475C3.35415 4.28516 3.38587 4.35538 3.40063 4.42999C3.41539 4.50461 3.41281 4.58162 3.39308 4.65507H3.43233C3.51233 4.65507 3.57483 4.58257 3.55983 4.50507C3.52489 4.32933 3.43001 4.17116 3.29139 4.05762C3.15276 3.94408 2.97901 3.88221 2.79983 3.88257ZM5.20483 3.88257C5.56733 3.88257 5.87233 4.13257 5.95733 4.46757C5.98233 4.56257 5.90733 4.65507 5.80733 4.65507H5.56783C5.58755 4.58164 5.59014 4.50465 5.57539 4.43005C5.56064 4.35546 5.52894 4.28525 5.48275 4.22485C5.43656 4.16445 5.3771 4.11547 5.30897 4.0817C5.24084 4.04793 5.16587 4.03027 5.08983 4.03007C5.01377 4.03023 4.93876 4.04786 4.8706 4.08162C4.80244 4.11538 4.74295 4.16435 4.69673 4.22475C4.6505 4.28516 4.61879 4.35538 4.60402 4.42999C4.58926 4.50461 4.59184 4.58162 4.61158 4.65507H4.57233C4.49233 4.65507 4.42983 4.58257 4.44483 4.50507C4.47976 4.32933 4.57464 4.17116 4.71327 4.05762C4.85189 3.94408 5.02564 3.88221 5.20483 3.88257Z" fill="white"/>
<path d="M4.85739 4.36478C4.82487 4.41188 4.80751 4.46779 4.80764 4.52503C4.80764 4.57253 4.82014 4.61753 4.84014 4.65753H5.34014C5.36732 4.60681 5.37835 4.54899 5.37176 4.49183C5.36516 4.43466 5.34124 4.38088 5.30322 4.33769C5.26519 4.2945 5.21488 4.26396 5.15901 4.25017C5.10314 4.23638 5.04439 4.23999 4.99064 4.26053C5.00132 4.26862 5.00999 4.27906 5.016 4.29103C5.02201 4.303 5.02519 4.3162 5.02529 4.32959C5.0254 4.34299 5.02242 4.35623 5.0166 4.3683C5.01078 4.38036 5.00226 4.39093 4.99171 4.39919C4.98116 4.40744 4.96885 4.41316 4.95574 4.41591C4.94263 4.41866 4.92906 4.41836 4.91608 4.41504C4.9031 4.41171 4.89106 4.40545 4.88089 4.39674C4.87071 4.38802 4.86267 4.37709 4.85739 4.36478ZM3.19764 4.52503C3.19775 4.47823 3.18623 4.43214 3.16411 4.3909C3.14199 4.34967 3.10997 4.31457 3.07092 4.28879C3.03186 4.263 2.98701 4.24733 2.9404 4.24318C2.89379 4.23904 2.84688 4.24654 2.80389 4.26503C2.81718 4.27683 2.82655 4.2924 2.83075 4.30966C2.83495 4.32693 2.83378 4.34507 2.82739 4.36165C2.821 4.37823 2.8097 4.39247 2.795 4.40245C2.7803 4.41244 2.76291 4.4177 2.74514 4.41753C2.73091 4.41755 2.7169 4.41409 2.70431 4.40747C2.69172 4.40085 2.68093 4.39126 2.67289 4.37953C2.64773 4.42126 2.63379 4.4688 2.63243 4.51751C2.63108 4.56622 2.64234 4.61446 2.66514 4.65753H3.16514C3.18514 4.61753 3.19764 4.57253 3.19764 4.52503ZM3.99839 5.50003C4.16839 5.50003 4.31589 5.41378 4.40589 5.28178C4.48589 5.16253 4.40089 5.00003 4.25839 5.00003H3.74089C3.59839 5.00003 3.51339 5.16253 3.59339 5.28178C3.68089 5.41378 3.83089 5.50003 3.99839 5.50003ZM4.00064 5.79353C3.73816 5.7945 3.47939 5.73161 3.24664 5.61028C3.23049 5.60142 3.21184 5.59826 3.19367 5.60129C3.17551 5.60433 3.1589 5.61339 3.14652 5.62702C3.13413 5.64064 3.12669 5.65804 3.1254 5.67641C3.12411 5.69478 3.12903 5.71305 3.13939 5.72828C3.23199 5.87271 3.35937 5.99158 3.50984 6.074C3.66032 6.15643 3.82907 6.19976 4.00064 6.20003C4.1722 6.19976 4.34096 6.15643 4.49143 6.074C4.64191 5.99158 4.76928 5.87271 4.86189 5.72828C4.90689 5.65803 4.82939 5.57278 4.75439 5.61028C4.52214 5.73271 4.26317 5.79567 4.00064 5.79353Z" fill="white"/>
<path d="M6.27699 1.18159C6.33849 1.31909 6.44899 1.42659 6.58649 1.48159C6.7785 1.56012 6.942 1.69532 7.05519 1.86916C7.16838 2.04301 7.22587 2.24723 7.21999 2.45459C7.21487 2.69761 7.12341 2.93087 6.96199 3.11259C6.88034 3.20449 6.82279 3.31522 6.79449 3.43484C7.01008 3.51051 7.19555 3.65365 7.32338 3.84302C7.45122 4.0324 7.51462 4.25793 7.50418 4.48618C7.49374 4.71442 7.41002 4.93323 7.26543 5.11015C7.12084 5.28706 6.92309 5.41267 6.70149 5.46834C6.46649 6.84509 5.33999 7.75009 4.00149 7.75009C2.66274 7.75009 1.53649 6.84459 1.30149 5.46759C1.08081 5.41163 0.883941 5.28627 0.73987 5.10999C0.595799 4.93372 0.512143 4.71583 0.501224 4.48843C0.490304 4.26103 0.552699 4.03613 0.679217 3.84686C0.805736 3.65759 0.98969 3.51395 1.20399 3.43709L1.18949 3.00759C1.14549 1.92359 1.90124 0.998094 2.92124 0.792594C3.11615 0.612092 3.36949 0.507737 3.63499 0.498594C3.87324 0.491094 4.09399 0.561094 4.27824 0.683594C4.38874 0.758594 4.53374 0.758594 4.64424 0.683594C4.82824 0.561094 5.05174 0.491094 5.28999 0.498594C5.73199 0.513594 6.10999 0.791344 6.27699 1.18159ZM1.69024 3.01834L1.71074 3.62284C1.71291 3.68522 1.69167 3.74616 1.65119 3.79367C1.61071 3.84118 1.55392 3.87183 1.49199 3.87959C1.35227 3.8971 1.2242 3.96638 1.13308 4.07374C1.04196 4.1811 0.994423 4.31873 0.999857 4.45943C1.00529 4.60014 1.0633 4.73369 1.16243 4.8337C1.26155 4.93372 1.39459 4.99291 1.53524 4.99959C1.59481 5.00241 1.65142 5.02644 1.69483 5.06733C1.73825 5.10823 1.76561 5.16329 1.77199 5.22259C1.90324 6.44809 2.85274 7.25009 4.00149 7.25009C5.15024 7.25009 6.09974 6.44809 6.23099 5.22259C6.23739 5.16317 6.26486 5.10801 6.30843 5.0671C6.352 5.02619 6.40878 5.00224 6.46849 4.99959C6.60997 4.99323 6.74384 4.93373 6.84337 4.83298C6.9429 4.73223 7.00076 4.59764 7.0054 4.45609C7.01004 4.31455 6.96112 4.17646 6.8684 4.06941C6.77568 3.96235 6.646 3.89421 6.50524 3.87859C6.44205 3.87167 6.38387 3.84093 6.34253 3.79263C6.3012 3.74433 6.27982 3.6821 6.28274 3.61859L6.30599 3.10809C6.21306 3.03923 6.10041 3.00214 5.98474 3.00234H4.71524C4.45693 3.00185 4.2023 2.94099 3.97169 2.82462C3.74107 2.70825 3.54085 2.53959 3.38699 2.33209C3.38048 2.3226 3.37097 2.31555 3.35999 2.31209H3.32799C3.31639 2.31497 3.30615 2.32177 3.29899 2.33134C3.29184 2.34091 3.28822 2.35266 3.28874 2.36459V2.79709C3.28901 2.85096 3.26798 2.90276 3.23024 2.9412C3.1925 2.97964 3.14111 3.00162 3.08724 3.00234C2.65524 3.00234 2.28699 2.72734 2.13474 2.34209C2.13098 2.33146 2.12328 2.32268 2.11323 2.31757C2.10318 2.31245 2.09155 2.31139 2.08074 2.31459C2.07187 2.31663 2.06383 2.3213 2.05767 2.32799C2.05151 2.33469 2.04753 2.34309 2.04624 2.35209C2.00699 2.58459 1.89874 2.79959 1.73924 2.96484C1.72224 2.98234 1.70574 3.00034 1.69024 3.01834Z" fill="white"/>
</g>
<defs>
<clipPath id="clip0_55_323">
<rect width="8" height="8" fill="white"/>
</clipPath>
</defs>
</svg>
